<?xml version="1.0" encoding="UTF-8" standalone="no"?>
<svg
   xmlns:dc="http://purl.org/dc/elements/1.1/"
   xmlns:cc="http://creativecommons.org/ns#"
   xmlns:rdf="http://www.w3.org/1999/02/22-rdf-syntax-ns#"
   xmlns:svg="http://www.w3.org/2000/svg"
   xmlns="http://www.w3.org/2000/svg"
   id="svg8"
   version="1.1"
   viewBox="0 0 19.475266 24.738371"
   height="24.738371mm"
   width="19.475266mm">
  <defs
     id="defs2" />
  <metadata
     id="metadata5">
    <rdf:RDF>
      <cc:Work
         rdf:about="">
        <dc:format>image/svg+xml</dc:format>
        <dc:type
           rdf:resource="http://purl.org/dc/dcmitype/StillImage" />
        <dc:title></dc:title>
      </cc:Work>
    </rdf:RDF>
  </metadata>
  <g
     transform="translate(-86.746968,-102.84066)"
     id="layer1">
    <g
       transform="translate(1.5119047,0.56696431)"
       id="g582">
      <path
         id="path588"
         d="m 86.617662,126.27221 c -0.625383,-0.38131 -1.233749,-1.07853 -1.351925,-1.54938 -0.118175,-0.47085 0.115689,-4.50874 0.519699,-8.97309 0.40401,-4.46435 0.734564,-8.21154 0.734564,-8.32708 0,-0.11554 0.781136,-0.21007 1.735859,-0.21007 1.635757,0 1.749053,-0.0601 1.964669,-1.04177 0.469524,-2.13772 2.621245,-3.89712 4.766138,-3.89712 2.144894,0 4.296615,1.7594 4.766139,3.89712 0.215616,0.98169 0.328915,1.04177 1.964665,1.04177 0.95473,0 1.73467,0.11906 1.73321,0.26458 -0.001,0.14552 0.33651,3.96739 0.75105,8.49305 1.05348,11.50126 1.47795,10.99859 -9.285739,10.99661 -6.496773,-0.001 -7.266777,-0.0657 -8.298329,-0.69462 z m 16.134778,-1.35357 0.78839,-0.6384 -0.59538,-7.03452 c -0.76014,-8.98113 -0.67909,-8.62202 -1.94593,-8.62202 -0.90277,0 -1.042848,0.14055 -1.139808,1.14364 -0.07281,0.7532 -0.321313,1.18356 -0.727907,1.26059 -0.494602,0.0937 -0.617361,-0.13371 -0.617361,-1.14364 v -1.26059 h -3.527778 -3.527777 v 1.26059 c 0,1.00993 -0.122759,1.23733 -0.617361,1.14364 -0.406594,-0.077 -0.655102,-0.50739 -0.727907,-1.26059 -0.09696,-1.00309 -0.237042,-1.14364 -1.139807,-1.14364 -1.274579,0 -1.204985,-0.30792 -1.94925,8.62434 l -0.586332,7.03684 0.785521,0.63608 c 0.697746,0.565 1.565195,0.63607 7.762913,0.63607 6.207094,0 7.064434,-0.0705 7.765774,-0.63839 z M 92.1732,123.59883 c -2.250986,-1.54152 -2.494911,-1.85239 -2.961627,-3.77444 -0.176299,-0.72604 -0.104758,-0.97013 0.284331,-0.97013 0.315231,0 0.611427,0.48786 0.75239,1.23926 0.196482,1.04734 1.625198,2.64129 2.367484,2.64129 0.496723,0 0.07153,-1.83684 -0.495431,-2.14027 -1.381075,-0.73912 -0.19771,-3.49279 1.260525,-2.93321 0.488507,0.18746 0.567718,0.4935 0.39026,1.50781 -0.629917,3.60048 -0.626358,3.7385 0.113676,4.40823 1.655633,1.49832 3.753341,-0.46108 2.930314,-2.73712 -0.601375,-1.66307 -0.523639,-2.92805 0.196927,-3.20456 0.405657,-0.15566 0.824986,0.0245 1.234723,0.53051 0.819616,1.01218 0.785822,1.98584 -0.08511,2.45194 -0.617349,0.3304 -1.053442,2.11667 -0.516754,2.11667 0.744106,0 1.979985,-1.35288 2.290996,-2.50789 0.510846,-1.89713 1.207986,-1.80934 0.900526,0.1134 -0.13069,0.81733 -0.27005,1.50877 -0.30967,1.53654 -2.493364,1.74703 -5.130979,3.32248 -5.536331,3.30685 -0.293113,-0.0113 -1.560868,-0.72449 -2.817233,-1.58488 z m 2.142103,-1.35199 c -0.509971,-0.61447 0.411907,-1.05303 1.492566,-0.71005 0.700794,0.22243 0.702519,0.2432 0.05926,0.71356 -0.829204,0.60633 -1.046121,0.60584 -1.551831,-0.003 z m -5.153745,-6.44723 c -0.74066,-1.13039 -0.653316,-1.99338 0.291595,-2.88108 0.910022,-0.85492 1.659424,-0.97225 2.275425,-0.35625 0.518725,0.51872 6.381213,0.48774 6.905449,-0.0365 1.033723,-1.03372 3.293823,0.74332 2.847343,2.23877 -0.46243,1.5489 -0.85667,1.65585 -6.443114,1.74793 -5.221825,0.0861 -5.364554,0.0688 -5.876698,-0.71287 z m 7.71383,-1.17869 c 1.646254,0 1.744529,-0.0457 1.221844,-0.5684 -1.234133,-1.23413 -5.977773,-0.94569 -6.232885,0.379 -0.111689,0.57995 0.0508,0.6239 1.548004,0.41868 0.920035,-0.1261 2.478402,-0.22928 3.463037,-0.22928 z m 1.639056,-7.74451 c 0,-1.47803 -1.894059,-3.1916 -3.527778,-3.1916 -1.633718,0 -3.527777,1.71357 -3.527777,3.1916 0,0.19064 1.527237,0.33618 3.527777,0.33618 2.000541,0 3.527778,-0.14554 3.527778,-0.33618 z"
         style="fill:#8c8c8c;fill-opacity:1;stroke-width:0.35277778" />
      <path
         id="path586"
         d="m 86.99168,126.40175 c -1.899535,-0.93685 -1.972896,-1.56826 -1.184323,-10.19333 0.39027,-4.26861 0.710271,-8.03892 0.711112,-8.37847 0.0013,-0.5048 0.320646,-0.61736 1.751822,-0.61736 1.73807,0 1.752896,-0.01 2.12333,-1.38536 1.229672,-4.56665 7.956419,-4.56665 9.186091,0 0.370434,1.37569 0.38526,1.38536 2.123328,1.38536 1.57904,0 1.75059,0.0777 1.75329,0.79375 0.002,0.43656 0.32349,4.20322 0.71519,8.37036 0.79669,8.47564 0.71853,9.10576 -1.24502,10.03753 -1.69452,0.8041 -14.299167,0.79423 -15.93482,-0.0125 z m 15.93168,-1.54938 c 0.61518,-0.67977 0.614,-0.98187 -0.0335,-8.55486 l -0.67123,-7.8502 -1.124,-0.10886 c -1.06983,-0.10362 -1.129335,-0.0441 -1.234721,1.23472 -0.15185,1.84266 -1.126446,1.85842 -1.278546,0.0207 l -0.10949,-1.32292 H 94.986666 91.50148 l -0.10949,1.32292 c -0.1521,1.83775 -1.126696,1.82199 -1.278546,-0.0207 -0.105386,-1.27884 -0.164891,-1.33834 -1.234722,-1.23473 l -1.124,0.10887 -0.670049,7.8515 c -0.645931,7.56889 -0.647138,7.87682 -0.03352,8.55487 0.596797,0.65945 1.092155,0.70335 7.935512,0.70335 6.847865,0 7.338395,-0.0435 7.936695,-0.70466 z m -10.629036,-1.31628 c -2.254631,-1.48934 -2.552178,-1.82027 -2.864717,-3.18607 -0.435184,-1.90175 0.277541,-1.91644 0.757361,-0.0156 0.284176,1.12578 2.016404,2.70954 2.729221,2.49529 0.122419,-0.0368 0.50421,0.24431 0.848427,0.62466 0.804257,0.88869 1.998006,0.88274 2.80955,-0.014 0.351186,-0.38806 0.787846,-0.70556 0.970357,-0.70556 0.887771,0 2.317423,-1.4906 2.533297,-2.64129 0.12786,-0.6816 0.40388,-1.23926 0.61337,-1.23926 0.23845,0 0.29844,0.41227 0.16041,1.10243 -0.12127,0.60633 -0.22049,1.2365 -0.22049,1.40036 0,0.32364 -5.081185,3.84918 -5.540318,3.8441 -0.154283,-0.002 -1.412694,-0.75098 -2.796468,-1.66506 z m 1.986787,-1.50683 c 0,-0.19403 0.396875,-0.35278 0.881944,-0.35278 0.48507,0 0.881945,0.15875 0.881945,0.35278 0,0.19402 -0.396875,0.35277 -0.881945,0.35277 -0.485069,0 -0.881944,-0.15875 -0.881944,-0.35277 z m -2.038941,-1.32987 c -0.430805,-0.28605 -0.783281,-0.74443 -0.783281,-1.01863 0,-0.82776 1.079427,-2.20738 1.577529,-2.01624 0.658077,0.25253 0.885398,1.8272 0.399093,2.76456 -0.377163,0.72698 -0.472897,0.74866 -1.193341,0.27031 z m 4.548182,-0.31117 c -0.889956,-1.95324 0.01355,-3.29189 1.384454,-2.05124 0.9058,0.81974 0.873443,1.29097 -0.149732,2.18061 l -0.842147,0.73224 z m -7.359689,-4.45585 c -0.989406,-1.28117 -0.74043,-2.70158 0.599215,-3.41853 0.497852,-0.26645 0.940097,-0.20521 1.710277,0.23681 l 1.038791,0.59619 -0.748223,0.60667 c -0.411523,0.33367 -0.644886,0.71045 -0.518586,0.83728 0.352111,0.3536 7.002307,-0.22004 7.002307,-0.60401 0,-0.1856 -0.319375,-0.42099 -0.709724,-0.52306 -0.619389,-0.16198 -0.553663,-0.26924 0.516383,-0.84276 1.332949,-0.71441 2.137977,-0.59177 2.672587,0.40716 0.48046,0.89775 0.42727,2.35637 -0.098,2.6874 -0.77459,0.48816 -11.089343,0.50332 -11.465027,0.0169 z m 8.932355,-9.68992 c -0.791853,-3.37059 -5.96085,-3.37059 -6.752703,0 l -0.227914,0.97014 h 3.604265 3.604266 z"
         style="fill:#606060;fill-opacity:1;stroke-width:0.35277778" />
      <path
         id="path584"
         d="m 87.578333,126.7279 c -0.841029,-0.32518 -1.820682,-1.28406 -2.12533,-2.08027 -0.215733,-0.56383 0.582671,-12.01071 1.154556,-16.5531 0.07142,-0.56724 0.424177,-0.74013 1.799535,-0.88194 1.628263,-0.16789 1.733857,-0.24439 2.191103,-1.5875 1.464599,-4.30208 7.31234,-4.30208 8.776939,0 0.457246,1.34311 0.56284,1.41961 2.191104,1.5875 1.37536,0.14181 1.72812,0.3147 1.79953,0.88194 0.57189,4.54239 1.37029,15.98927 1.15456,16.5531 -0.15426,0.40316 -0.63247,1.05051 -1.06269,1.43857 -0.72302,0.65216 -1.33351,0.71088 -8.06618,0.77593 -4.006178,0.0387 -7.522085,-0.0217 -7.813127,-0.13423 z m 15.320637,-1.72523 c 0.69862,-0.69862 0.68475,-2.35962 -0.0867,-10.38175 l -0.59368,-6.17361 -1.14653,-0.11054 c -1.047,-0.10095 -1.146993,-0.0244 -1.151927,0.88194 -0.003,0.54587 -0.143972,1.21127 -0.313336,1.47866 -0.491435,0.77588 -1.092373,0.10883 -1.092373,-1.21255 v -1.2139 H 95.007962 91.50148 l -0.10949,1.32292 c -0.07383,0.89208 -0.281825,1.32292 -0.638657,1.32292 -0.356831,0 -0.564825,-0.43084 -0.638656,-1.32292 -0.09992,-1.20729 -0.201101,-1.32292 -1.1576,-1.32292 -0.57646,0 -1.114071,0.19844 -1.19469,0.44097 -0.195192,0.58722 -1.246384,12.78662 -1.244145,14.4387 0.0032,2.34498 0.219469,2.40644 8.468424,2.40644 6.218664,0 7.443774,-0.0858 7.912304,-0.55436 z M 92.295102,123.4383 c -2.143497,-1.47237 -2.550878,-1.91799 -2.756776,-3.01552 -0.339183,-1.808 0.02063,-1.92808 0.54391,-0.18152 0.362201,1.20893 0.777854,1.66329 2.451848,2.68018 2.045629,1.24266 3.099027,1.49526 3.70567,0.88862 0.184726,-0.18473 1.048158,-0.71254 1.918738,-1.17291 1.229024,-0.64993 1.662607,-1.12043 1.939548,-2.10471 0.19618,-0.69721 0.49547,-1.39972 0.66509,-1.56112 0.17341,-0.165 0.22637,0.0154 0.12098,0.4121 -0.10308,0.38806 -0.27844,1.10243 -0.38968,1.5875 -0.13877,0.60509 -1.014483,1.40797 -2.789674,2.55764 -1.423074,0.92163 -2.656498,1.66709 -2.740943,1.65656 -0.08445,-0.0105 -1.285364,-0.79659 -2.668711,-1.74682 z m 1.986009,-1.40904 c 0,-0.19403 0.396875,-0.35278 0.881944,-0.35278 0.48507,0 0.881945,0.15875 0.881945,0.35278 0,0.19402 -0.396875,0.35277 -0.881945,0.35277 -0.485069,0 -0.881944,-0.15875 -0.881944,-0.35277 z m -2.045933,-1.61294 c -0.94539,-0.66218 -0.984183,-1.26457 -0.13115,-2.03655 0.986818,-0.89306 1.472107,-0.70681 1.466125,0.56268 -0.0081,1.71165 -0.391348,2.13481 -1.334975,1.47387 z m 4.598027,0.009 c -0.410934,-0.7343 -0.111095,-2.62966 0.416001,-2.62966 1.273049,0 1.725306,2.1984 0.578518,2.81214 -0.528332,0.28276 -0.757714,0.24067 -0.994519,-0.18248 z m -7.458949,-4.50262 c -0.715588,-0.71559 -0.434001,-2.27047 0.551578,-3.04573 0.871744,-0.68571 0.980557,-0.69659 1.576148,-0.15759 0.476678,0.43139 0.552726,0.7416 0.298333,1.21694 -0.187784,0.35088 -0.341426,0.73172 -0.341426,0.84632 0,0.1146 1.666039,0.16472 3.702308,0.11139 2.03627,-0.0533 3.703145,-0.16385 3.704167,-0.24559 0.001,-0.0817 -0.222,-0.39924 -0.495605,-0.70555 -0.433977,-0.48587 -0.39342,-0.63447 0.317804,-1.1644 0.777895,-0.5796 0.857296,-0.57439 1.732187,0.1138 0.9769,0.76843 1.16888,1.91965 0.46472,2.78671 -0.34425,0.42389 -1.493687,0.53904 -5.777575,0.57884 -3.456123,0.0321 -5.483948,-0.0864 -5.732639,-0.33514 z m 9.140188,-9.44306 c 0,-0.40298 -0.464038,-1.19673 -1.031196,-1.76389 -0.808743,-0.80874 -1.347316,-1.0312 -2.496582,-1.0312 -1.149265,0 -1.687838,0.22246 -2.496581,1.0312 -0.567158,0.56716 -1.031196,1.36091 -1.031196,1.76389 0,0.69289 0.191632,0.73269 3.527777,0.73269 3.336146,0 3.527778,-0.0398 3.527778,-0.73269 z"
         style="fill:#333333;fill-opacity:1;stroke-width:0.35277778" />
    </g>
  </g>
</svg>
